<svg width="550.000000" height="470.000000" viewBox="0 0 550 470" fill="none" xmlns="http://www.w3.org/2000/svg" xmlns:xlink="http://www.w3.org/1999/xlink">
	<defs>
		<clipPath id="clip4_1">
			<rect id="svg" width="550.000000" height="470.000000" fill="white" fill-opacity="0"/>
		</clipPath>
		<linearGradient x1="65.000000" y1="234.999878" x2="485.000000" y2="234.999878" id="paint_linear_4_2_0" gradientUnits="userSpaceOnUse">
			<stop stop-color="#7B4397"/>
			<stop offset="1.000000" stop-color="#DC2430"/>
		</linearGradient>
		<linearGradient x1="65.000000" y1="235.000000" x2="485.000061" y2="235.000000" id="paint_linear_4_3_0" gradientUnits="userSpaceOnUse">
			<stop stop-color="#7B4397"/>
			<stop offset="1.000000" stop-color="#DC2430"/>
		</linearGradient>
		<linearGradient x1="65.000000" y1="234.999939" x2="485.000031" y2="234.999939" id="paint_linear_4_4_0" gradientUnits="userSpaceOnUse">
			<stop stop-color="#7B4397"/>
			<stop offset="1.000000" stop-color="#DC2430"/>
		</linearGradient>
		<linearGradient x1="65.000000" y1="235.000000" x2="485.000031" y2="235.000000" id="paint_linear_4_5_0" gradientUnits="userSpaceOnUse">
			<stop stop-color="#7B4397"/>
			<stop offset="1.000000" stop-color="#DC2430"/>
		</linearGradient>
		<linearGradient x1="65.000000" y1="235.000015" x2="484.999908" y2="235.000015" id="paint_linear_4_6_0" gradientUnits="userSpaceOnUse">
			<stop stop-color="#7B4397"/>
			<stop offset="1.000000" stop-color="#DC2430"/>
		</linearGradient>
		<linearGradient x1="64.999969" y1="235.000015" x2="484.999969" y2="235.000015" id="paint_linear_4_7_0" gradientUnits="userSpaceOnUse">
			<stop stop-color="#7B4397"/>
			<stop offset="1.000000" stop-color="#DC2430"/>
		</linearGradient>
		<linearGradient x1="64.999939" y1="235.000000" x2="485.000000" y2="235.000000" id="paint_linear_4_8_0" gradientUnits="userSpaceOnUse">
			<stop stop-color="#7B4397"/>
			<stop offset="1.000000" stop-color="#DC2430"/>
		</linearGradient>
		<linearGradient x1="65.000000" y1="235.000015" x2="484.999939" y2="235.000015" id="paint_linear_4_9_0" gradientUnits="userSpaceOnUse">
			<stop stop-color="#7B4397"/>
			<stop offset="1.000000" stop-color="#DC2430"/>
		</linearGradient>
		<linearGradient x1="65.000000" y1="235.000015" x2="485.000000" y2="235.000015" id="paint_linear_4_10_0" gradientUnits="userSpaceOnUse">
			<stop stop-color="#7B4397"/>
			<stop offset="1.000000" stop-color="#DC2430"/>
		</linearGradient>
		<linearGradient x1="65.000000" y1="235.000000" x2="485.000000" y2="235.000000" id="paint_linear_4_11_0" gradientUnits="userSpaceOnUse">
			<stop stop-color="#7B4397"/>
			<stop offset="1.000000" stop-color="#DC2430"/>
		</linearGradient>
		<linearGradient x1="64.999969" y1="235.000046" x2="485.000031" y2="235.000046" id="paint_linear_4_12_0" gradientUnits="userSpaceOnUse">
			<stop stop-color="#7B4397"/>
			<stop offset="1.000000" stop-color="#DC2430"/>
		</linearGradient>
		<linearGradient x1="65.000000" y1="235.000000" x2="485.000031" y2="235.000000" id="paint_linear_4_13_0" gradientUnits="userSpaceOnUse">
			<stop stop-color="#7B4397"/>
			<stop offset="1.000000" stop-color="#DC2430"/>
		</linearGradient>
		<linearGradient x1="65.000015" y1="235.000015" x2="485.000000" y2="235.000015" id="paint_linear_4_14_0" gradientUnits="userSpaceOnUse">
			<stop stop-color="#7B4397"/>
			<stop offset="1.000000" stop-color="#DC2430"/>
		</linearGradient>
		<linearGradient x1="64.999985" y1="235.000000" x2="485.000000" y2="235.000000" id="paint_linear_4_15_0" gradientUnits="userSpaceOnUse">
			<stop stop-color="#7B4397"/>
			<stop offset="1.000000" stop-color="#DC2430"/>
		</linearGradient>
		<linearGradient x1="65.000015" y1="234.999954" x2="485.000000" y2="234.999954" id="paint_linear_4_16_0" gradientUnits="userSpaceOnUse">
			<stop stop-color="#7B4397"/>
			<stop offset="1.000000" stop-color="#DC2430"/>
		</linearGradient>
		<linearGradient x1="65.000015" y1="235.000000" x2="485.000000" y2="235.000000" id="paint_linear_4_17_0" gradientUnits="userSpaceOnUse">
			<stop stop-color="#7B4397"/>
			<stop offset="1.000000" stop-color="#DC2430"/>
		</linearGradient>
		<linearGradient x1="65.000000" y1="234.999985" x2="485.000000" y2="234.999985" id="paint_linear_4_18_0" gradientUnits="userSpaceOnUse">
			<stop stop-color="#7B4397"/>
			<stop offset="1.000000" stop-color="#DC2430"/>
		</linearGradient>
		<linearGradient x1="65.000000" y1="235.000031" x2="485.000000" y2="235.000031" id="paint_linear_4_19_0" gradientUnits="userSpaceOnUse">
			<stop stop-color="#7B4397"/>
			<stop offset="1.000000" stop-color="#DC2430"/>
		</linearGradient>
		<linearGradient x1="65.000000" y1="234.999985" x2="484.999939" y2="234.999985" id="paint_linear_4_20_0" gradientUnits="userSpaceOnUse">
			<stop stop-color="#7B4397"/>
			<stop offset="1.000000" stop-color="#DC2430"/>
		</linearGradient>
		<linearGradient x1="64.999969" y1="234.999969" x2="485.000031" y2="234.999969" id="paint_linear_4_21_0" gradientUnits="userSpaceOnUse">
			<stop stop-color="#7B4397"/>
			<stop offset="1.000000" stop-color="#DC2430"/>
		</linearGradient>
		<linearGradient x1="65.000031" y1="234.999969" x2="485.000092" y2="234.999969" id="paint_linear_4_22_0" gradientUnits="userSpaceOnUse">
			<stop stop-color="#7B4397"/>
			<stop offset="1.000000" stop-color="#DC2430"/>
		</linearGradient>
		<linearGradient x1="65.000000" y1="234.999969" x2="485.000061" y2="234.999969" id="paint_linear_4_23_0" gradientUnits="userSpaceOnUse">
			<stop stop-color="#7B4397"/>
			<stop offset="1.000000" stop-color="#DC2430"/>
		</linearGradient>
		<linearGradient x1="65.000000" y1="234.999985" x2="485.000000" y2="234.999985" id="paint_linear_4_24_0" gradientUnits="userSpaceOnUse">
			<stop stop-color="#7B4397"/>
			<stop offset="1.000000" stop-color="#DC2430"/>
		</linearGradient>
		<linearGradient x1="65.000000" y1="234.999969" x2="485.000092" y2="234.999969" id="paint_linear_4_25_0" gradientUnits="userSpaceOnUse">
			<stop stop-color="#7B4397"/>
			<stop offset="1.000000" stop-color="#DC2430"/>
		</linearGradient>
		<linearGradient x1="65.000000" y1="234.999985" x2="485.000031" y2="234.999985" id="paint_linear_4_26_0" gradientUnits="userSpaceOnUse">
			<stop stop-color="#7B4397"/>
			<stop offset="1.000000" stop-color="#DC2430"/>
		</linearGradient>
		<linearGradient x1="64.999992" y1="234.999451" x2="485.000031" y2="234.999451" id="paint_linear_4_27_0" gradientUnits="userSpaceOnUse">
			<stop stop-color="#7B4397"/>
			<stop offset="1.000000" stop-color="#DC2430"/>
		</linearGradient>
	</defs>
	<g clip-path="url(#clip4_1)">
		<path id="element-id-27470" d="M172.07 201.82C173.31 201.82 173.98 202.82 173.98 204.91L173.98 228.72C173.98 230.82 173.31 231.81 172.07 231.81L172.07 232.53L188.36 232.53C197.26 232.53 203.16 229.01 203.16 223.67C203.16 219.48 199.02 216.44 192.45 215.53C197.4 214.44 200.4 212.05 200.4 208.86C200.4 204.2 195.12 201.1 187.17 201.1L172.02 201.1L172.07 201.82ZM181.83 214.96L181.83 203.1L187.17 203.1C190.36 203.1 192.45 205.39 192.45 208.86C192.45 212.53 189.88 214.96 186.07 214.96L181.83 214.96ZM181.83 216.82L185.74 216.82C191.17 216.82 194.78 219.58 194.78 223.67C194.78 227.77 191.88 230.53 187.5 230.53L181.83 230.53L181.83 216.82Z" fill="url(#paint_linear_4_5_0)" fill-opacity="1.000000" fill-rule="nonzero"/>
		<path id="element-id-27470" d="M173.98 204.91L173.98 228.72C173.98 230.82 173.31 231.81 172.07 231.81L172.07 232.53L188.36 232.53C197.26 232.53 203.16 229.01 203.16 223.67C203.16 219.48 199.02 216.44 192.45 215.53C197.4 214.44 200.4 212.05 200.4 208.86C200.4 204.2 195.12 201.1 187.17 201.1L172.02 201.1L172.07 201.82C173.31 201.82 173.98 202.82 173.98 204.91ZM181.83 203.1L187.17 203.1C190.36 203.1 192.45 205.39 192.45 208.86C192.45 212.53 189.88 214.96 186.07 214.96L181.83 214.96L181.83 203.1ZM185.74 216.82C191.17 216.82 194.78 219.58 194.78 223.67C194.78 227.77 191.88 230.53 187.5 230.53L181.83 230.53L181.83 216.82L185.74 216.82Z" stroke="#000000" stroke-opacity="0" stroke-width="1.000000"/>
		<path id="element-id-46927" d="M234.64 201.1L227.78 201.1L227.78 201.82L228.11 201.82C229.21 201.82 229.97 203.06 230.07 204.96L230.02 222.43C230.02 226.96 227.5 229.96 221.02 229.96C216.45 229.96 214.64 227.29 214.64 223.29L214.59 204.53C214.69 202.63 215.31 201.77 216.5 201.77L216.5 201.06L204.78 201.06L204.78 201.77C206.02 201.77 206.69 202.77 206.69 204.86L206.69 221.77C206.69 228.34 210.35 232.72 219.83 232.72C228.92 232.72 232.45 228.91 232.45 223.2L232.45 205.34C232.45 203.2 233.21 201.77 234.3 201.77L234.64 201.77L234.64 201.1Z" fill="url(#paint_linear_4_6_0)" fill-opacity="1.000000" fill-rule="nonzero"/>
		<path id="element-id-46927" d="M227.78 201.1L227.78 201.82L228.11 201.82C229.21 201.82 229.97 203.06 230.07 204.96L230.02 222.43C230.02 226.96 227.5 229.96 221.02 229.96C216.45 229.96 214.64 227.29 214.64 223.29L214.59 204.53C214.69 202.63 215.31 201.77 216.5 201.77L216.5 201.06L204.78 201.06L204.78 201.77C206.02 201.77 206.69 202.77 206.69 204.86L206.69 221.77C206.69 228.34 210.35 232.72 219.83 232.72C228.92 232.72 232.45 228.91 232.45 223.2L232.45 205.34C232.45 203.2 233.21 201.77 234.3 201.77L234.64 201.77L234.64 201.1L227.78 201.1Z" stroke="#000000" stroke-opacity="0" stroke-width="1.000000"/>
		<path id="element-id-87944" d="M270.78 208.48L270.78 203.53L270.3 204.39L270.78 203.53C268.01 201.91 263.35 200.87 259.11 200.87C247.45 200.87 239.64 207.25 239.64 216.82C239.64 226.39 247.45 232.77 259.11 232.77C263.49 232.77 268.3 231.72 271.06 230.1L271.06 221.58C271.06 219.48 271.73 218.48 272.97 218.48L272.97 217.77L262.02 217.77L262.02 218.48C263.25 218.48 263.92 219.48 263.92 221.58L263.92 230.34C262.35 230.62 260.68 230.77 259.06 230.77C252.64 230.77 248.35 225.2 248.35 216.82C248.35 208.44 252.64 202.87 259.06 202.87C260.06 202.87 261.11 202.91 262.16 203.06C265.21 203.44 268.16 205.15 269.49 207.44C269.68 207.77 269.92 208.15 270.11 208.48L270.78 208.48Z" fill="url(#paint_linear_4_7_0)" fill-opacity="1.000000" fill-rule="nonzero"/>
		<path id="element-id-87944" d="M270.78 203.53C268.01 201.91 263.35 200.87 259.11 200.87C247.45 200.87 239.64 207.25 239.64 216.82C239.64 226.39 247.45 232.77 259.11 232.77C263.49 232.77 268.3 231.72 271.06 230.1L271.06 221.58C271.06 219.48 271.73 218.48 272.97 218.48L272.97 217.77L262.02 217.77L262.02 218.48C263.25 218.48 263.92 219.48 263.92 221.58L263.92 230.34C262.35 230.62 260.68 230.77 259.06 230.77C252.64 230.77 248.35 225.2 248.35 216.82C248.35 208.44 252.64 202.87 259.06 202.87C260.06 202.87 261.11 202.91 262.16 203.06C265.21 203.44 268.16 205.15 269.49 207.44C269.68 207.77 269.92 208.15 270.11 208.48L270.78 208.48L270.78 203.53ZM270.78 203.53L270.3 204.39" stroke="#000000" stroke-opacity="0" stroke-width="1.000000"/>
		<path id="element-id-73805" d="M290.44 201.82C291.68 201.82 292.35 202.82 292.35 204.91L292.35 228.72C292.35 230.82 291.68 231.81 290.44 231.81L290.44 232.53L306.73 232.53C315.63 232.53 321.53 229.01 321.53 223.67C321.53 219.48 317.39 216.44 310.82 215.53C315.77 214.44 318.77 212.05 318.77 208.86C318.77 204.2 313.49 201.1 305.54 201.1L290.39 201.1L290.44 201.82ZM300.2 214.96L300.2 203.1L305.54 203.1C308.73 203.1 310.82 205.39 310.82 208.86C310.82 212.53 308.25 214.96 304.44 214.96L300.2 214.96ZM300.2 216.82L304.11 216.82C309.54 216.82 313.15 219.58 313.15 223.67C313.15 227.77 310.25 230.53 305.87 230.53L300.2 230.53L300.2 216.82Z" fill="url(#paint_linear_4_8_0)" fill-opacity="1.000000" fill-rule="nonzero"/>
		<path id="element-id-73805" d="M292.35 204.91L292.35 228.72C292.35 230.82 291.68 231.81 290.44 231.81L290.44 232.53L306.73 232.53C315.63 232.53 321.53 229.01 321.53 223.67C321.53 219.48 317.39 216.44 310.82 215.53C315.77 214.44 318.77 212.05 318.77 208.86C318.77 204.2 313.49 201.1 305.54 201.1L290.39 201.1L290.44 201.82C291.68 201.82 292.35 202.82 292.35 204.91ZM300.2 203.1L305.54 203.1C308.73 203.1 310.82 205.39 310.82 208.86C310.82 212.53 308.25 214.96 304.44 214.96L300.2 214.96L300.2 203.1ZM304.11 216.82C309.54 216.82 313.15 219.58 313.15 223.67C313.15 227.77 310.25 230.53 305.87 230.53L300.2 230.53L300.2 216.82L304.11 216.82Z" stroke="#000000" stroke-opacity="0" stroke-width="1.000000"/>
		<path id="element-id-26542" d="M332.72 216.82C332.72 209.29 335.25 202.87 340.1 202.87C345.01 202.87 347.53 209.29 347.53 216.82C347.53 224.34 345.01 230.77 340.1 230.77C335.25 230.77 332.72 224.34 332.72 216.82ZM323.96 216.82C323.96 225.43 329.44 232.77 340.1 232.77C350.77 232.77 356.25 225.43 356.25 216.82C356.25 208.2 350.77 200.87 340.1 200.87C329.44 200.87 323.96 208.2 323.96 216.82Z" fill="url(#paint_linear_4_9_0)" fill-opacity="1.000000" fill-rule="nonzero"/>
		<path id="element-id-26542" d="M340.1 202.87C345.01 202.87 347.53 209.29 347.53 216.82C347.53 224.34 345.01 230.77 340.1 230.77C335.25 230.77 332.72 224.34 332.72 216.82C332.72 209.29 335.25 202.87 340.1 202.87ZM340.1 232.77C350.77 232.77 356.25 225.43 356.25 216.82C356.25 208.2 350.77 200.87 340.1 200.87C329.44 200.87 323.96 208.2 323.96 216.82C323.96 225.43 329.44 232.77 340.1 232.77Z" stroke="#000000" stroke-opacity="0" stroke-width="1.000000"/>
		<path id="element-id-19759" d="M389.15 201.1L382.29 201.1L382.29 201.82L382.62 201.82C383.72 201.82 384.48 203.06 384.58 204.96L384.53 222.43C384.53 226.96 382.01 229.96 375.53 229.96C370.96 229.96 369.15 227.29 369.15 223.29L369.1 204.53C369.2 202.63 369.82 201.77 371.01 201.77L371.01 201.06L359.29 201.06L359.29 201.77C360.53 201.77 361.2 202.77 361.2 204.86L361.2 221.77C361.2 228.34 364.86 232.72 374.34 232.72C383.43 232.72 386.96 228.91 386.96 223.2L386.96 205.34C386.96 203.2 387.72 201.77 388.81 201.77L389.15 201.77L389.15 201.1Z" fill="url(#paint_linear_4_10_0)" fill-opacity="1.000000" fill-rule="nonzero"/>
		<path id="element-id-19759" d="M382.29 201.1L382.29 201.82L382.62 201.82C383.72 201.82 384.48 203.06 384.58 204.96L384.53 222.43C384.53 226.96 382.01 229.96 375.53 229.96C370.96 229.96 369.15 227.29 369.15 223.29L369.1 204.53C369.2 202.63 369.82 201.77 371.01 201.77L371.01 201.06L359.29 201.06L359.29 201.77C360.53 201.77 361.2 202.77 361.2 204.86L361.2 221.77C361.2 228.34 364.86 232.72 374.34 232.72C383.43 232.72 386.96 228.91 386.96 223.2L386.96 205.34C386.96 203.2 387.72 201.77 388.81 201.77L389.15 201.77L389.15 201.1L382.29 201.1Z" stroke="#000000" stroke-opacity="0" stroke-width="1.000000"/>
		<path id="element-id-20033" d="M394.34 201.82C395.58 201.82 396.24 202.82 396.24 204.91L396.24 228.72C396.24 230.82 395.58 231.81 394.34 231.81L394.34 232.53L400.53 232.53L400.53 231.81C399.29 231.81 398.62 230.82 398.62 228.72L398.62 208.06C404.96 216.53 411.29 225.01 417.62 233.48L420.62 233.48L420.62 204.91C420.62 202.82 421.29 201.82 422.53 201.82L422.53 201.1L416.34 201.1L416.34 201.82C417.57 201.82 418.24 202.82 418.24 204.91L418.24 221.2L403.38 201.1L394.38 201.1L394.34 201.82Z" fill="url(#paint_linear_4_11_0)" fill-opacity="1.000000" fill-rule="nonzero"/>
		<path id="element-id-20033" d="M396.24 204.91L396.24 228.72C396.24 230.82 395.58 231.81 394.34 231.81L394.34 232.53L400.53 232.53L400.53 231.81C399.29 231.81 398.62 230.82 398.62 228.72L398.62 208.06C404.96 216.53 411.29 225.01 417.62 233.48L420.62 233.48L420.62 204.91C420.62 202.82 421.29 201.82 422.53 201.82L422.53 201.1L416.34 201.1L416.34 201.82C417.57 201.82 418.24 202.82 418.24 204.91L418.24 221.2L403.38 201.1L394.38 201.1L394.34 201.82C395.58 201.82 396.24 202.82 396.24 204.91Z" stroke="#000000" stroke-opacity="0" stroke-width="1.000000"/>
		<path id="element-id-28421" d="M433.05 232.53L444.76 232.53L444.76 231.81C443.52 231.81 442.86 230.81 442.86 228.72L442.86 203.1L447.19 203.1C449.47 203.1 451.86 204.44 453.24 206.39L453.62 206.96L454.19 206.96C454.05 205.48 453.9 203.58 453.76 202.1L453.67 201.1L424.14 201.1L424.05 202.1C423.91 203.58 423.76 205.48 423.62 206.96L424.19 206.96L424.57 206.39C425.95 204.44 428.33 203.1 430.62 203.1L434.95 203.1L434.95 228.72C434.95 230.81 434.29 231.81 433.05 231.81L433.05 232.53Z" fill="url(#paint_linear_4_12_0)" fill-opacity="1.000000" fill-rule="nonzero"/>
		<path id="element-id-28421" d="M444.76 232.53L444.76 231.81C443.52 231.81 442.86 230.81 442.86 228.72L442.86 203.1L447.19 203.1C449.47 203.1 451.86 204.44 453.24 206.39L453.62 206.96L454.19 206.96C454.05 205.48 453.9 203.58 453.76 202.1L453.67 201.1L424.14 201.1L424.05 202.1C423.91 203.58 423.76 205.48 423.62 206.96L424.19 206.96L424.57 206.39C425.95 204.44 428.33 203.1 430.62 203.1L434.95 203.1L434.95 228.72C434.95 230.81 434.29 231.81 433.05 231.81L433.05 232.53L444.76 232.53Z" stroke="#000000" stroke-opacity="0" stroke-width="1.000000"/>
		<path id="element-id-34026" d="M466.14 201.1L453.38 201.1L453.38 201.82C454.33 201.82 455.28 202.72 456.43 204.39L465.14 218.15L465.19 229.15C465.09 231.01 464.47 231.86 463.28 231.86L463.28 232.58L475 232.58L475 231.86C473.76 231.86 473.09 230.86 473.09 228.77L473.09 215.96C475.76 212.29 478.42 208.58 481.14 204.91C482.57 202.91 483.85 201.82 485 201.82L485 201.1L478.66 201.1L478.66 201.82L479 201.82C480.19 201.82 479.81 203.44 478.09 205.86L472.14 214.29L466.09 204.63C465.09 202.91 465 201.82 465.9 201.82L466.14 201.82L466.14 201.1Z" fill="url(#paint_linear_4_13_0)" fill-opacity="1.000000" fill-rule="nonzero"/>
		<path id="element-id-34026" d="M453.38 201.1L453.38 201.82C454.33 201.82 455.28 202.72 456.43 204.39L465.14 218.15L465.19 229.15C465.09 231.01 464.47 231.86 463.28 231.86L463.28 232.58L475 232.58L475 231.86C473.76 231.86 473.09 230.86 473.09 228.77L473.09 215.96C475.76 212.29 478.42 208.58 481.14 204.91C482.57 202.91 483.85 201.82 485 201.82L485 201.1L478.66 201.1L478.66 201.82L479 201.82C480.19 201.82 479.81 203.44 478.09 205.86L472.14 214.29L466.09 204.63C465.09 202.91 465 201.82 465.9 201.82L466.14 201.82L466.14 201.1L453.38 201.1Z" stroke="#000000" stroke-opacity="0" stroke-width="1.000000"/>
		<path id="element-id-92083" d="M198.93 267.67C197.85 267.67 197.27 266.8 197.27 264.97L197.27 244.17C197.27 242.34 197.85 241.47 198.93 241.47L198.93 240.84L188.66 240.84L188.66 241.47C189.74 241.47 190.32 242.34 190.32 244.17L190.32 252.99L180.63 252.99L180.63 244.17C180.63 242.34 181.22 241.47 182.3 241.47L182.3 240.84L172.02 240.84L172.02 241.47C173.11 241.47 173.69 242.34 173.69 244.17L173.69 264.97C173.69 266.8 173.11 267.67 172.02 267.67L172.02 268.29L182.3 268.29L182.3 267.67C181.22 267.67 180.63 266.8 180.63 264.97L180.63 254.74L190.32 254.74L190.32 264.97C190.32 266.8 189.74 267.67 188.66 267.67L188.66 268.29L198.93 268.29L198.93 267.67Z" fill="url(#paint_linear_4_14_0)" fill-opacity="1.000000" fill-rule="nonzero"/>
		<path id="element-id-92083" d="M197.27 264.97L197.27 244.17C197.27 242.34 197.85 241.47 198.93 241.47L198.93 240.84L188.66 240.84L188.66 241.47C189.74 241.47 190.32 242.34 190.32 244.17L190.32 252.99L180.63 252.99L180.63 244.17C180.63 242.34 181.22 241.47 182.3 241.47L182.3 240.84L172.02 240.84L172.02 241.47C173.11 241.47 173.69 242.34 173.69 244.17L173.69 264.97C173.69 266.8 173.11 267.67 172.02 267.67L172.02 268.29L182.3 268.29L182.3 267.67C181.22 267.67 180.63 266.8 180.63 264.97L180.63 254.74L190.32 254.74L190.32 264.97C190.32 266.8 189.74 267.67 188.66 267.67L188.66 268.29L198.93 268.29L198.93 267.67C197.85 267.67 197.27 266.8 197.27 264.97Z" stroke="#000000" stroke-opacity="0" stroke-width="1.000000"/>
		<path id="element-id-65790" d="M227.26 240.84L221.27 240.84L221.27 241.47L221.56 241.47C222.52 241.47 223.18 242.55 223.26 244.21L223.22 259.48C223.22 263.43 221.02 266.05 215.36 266.05C211.37 266.05 209.79 263.72 209.79 260.23L209.75 243.84C209.83 242.17 210.37 241.43 211.41 241.43L211.41 240.8L201.18 240.8L201.18 241.43C202.26 241.43 202.84 242.3 202.84 244.13L202.84 258.89C202.84 264.63 206.05 268.46 214.32 268.46C222.27 268.46 225.34 265.13 225.34 260.14L225.34 244.55C225.34 242.67 226.01 241.43 226.97 241.43L227.26 241.43L227.26 240.84Z" fill="url(#paint_linear_4_15_0)" fill-opacity="1.000000" fill-rule="nonzero"/>
		<path id="element-id-65790" d="M221.27 240.84L221.27 241.47L221.56 241.47C222.52 241.47 223.18 242.55 223.26 244.21L223.22 259.48C223.22 263.43 221.02 266.05 215.36 266.05C211.37 266.05 209.79 263.72 209.79 260.23L209.75 243.84C209.83 242.17 210.37 241.43 211.41 241.43L211.41 240.8L201.18 240.8L201.18 241.43C202.26 241.43 202.84 242.3 202.84 244.13L202.84 258.89C202.84 264.63 206.05 268.46 214.32 268.46C222.27 268.46 225.34 265.13 225.34 260.14L225.34 244.55C225.34 242.67 226.01 241.43 226.97 241.43L227.26 241.43L227.26 240.84L221.27 240.84Z" stroke="#000000" stroke-opacity="0" stroke-width="1.000000"/>
		<path id="element-id-3961" d="M231.79 241.47C232.87 241.47 233.45 242.34 233.45 244.17L233.45 264.97C233.45 266.8 232.87 267.67 231.79 267.67L231.79 268.29L237.2 268.29L237.2 267.67C236.12 267.67 235.53 266.8 235.53 264.97L235.53 246.92C241.07 254.32 246.6 261.72 252.13 269.13L254.75 269.13L254.75 244.17C254.75 242.34 255.33 241.47 256.41 241.47L256.41 240.84L251.01 240.84L251.01 241.47C252.09 241.47 252.67 242.34 252.67 244.17L252.67 258.4L239.69 240.84L231.83 240.84L231.79 241.47Z" fill="url(#paint_linear_4_16_0)" fill-opacity="1.000000" fill-rule="nonzero"/>
		<path id="element-id-3961" d="M233.45 244.17L233.45 264.97C233.45 266.8 232.87 267.67 231.79 267.67L231.79 268.29L237.2 268.29L237.2 267.67C236.12 267.67 235.53 266.8 235.53 264.97L235.53 246.92C241.07 254.32 246.6 261.72 252.13 269.13L254.75 269.13L254.75 244.17C254.75 242.34 255.33 241.47 256.41 241.47L256.41 240.84L251.01 240.84L251.01 241.47C252.09 241.47 252.67 242.34 252.67 244.17L252.67 258.4L239.69 240.84L231.83 240.84L231.79 241.47C232.87 241.47 233.45 242.34 233.45 244.17Z" stroke="#000000" stroke-opacity="0" stroke-width="1.000000"/>
		<path id="element-id-94144" d="M265.6 268.29L275.84 268.29L275.84 267.67C274.75 267.67 274.17 266.8 274.17 264.97L274.17 242.59L277.96 242.59C279.95 242.59 282.03 243.76 283.24 245.46L283.57 245.96L284.07 245.96C283.95 244.67 283.82 243.01 283.7 241.72L283.61 240.84L257.83 240.84L257.74 241.72C257.62 243.01 257.49 244.67 257.37 245.96L257.87 245.96L258.2 245.46C259.41 243.76 261.49 242.59 263.48 242.59L267.27 242.59L267.27 264.97C267.27 266.8 266.69 267.67 265.6 267.67L265.6 268.29Z" fill="url(#paint_linear_4_17_0)" fill-opacity="1.000000" fill-rule="nonzero"/>
		<path id="element-id-94144" d="M275.84 268.29L275.84 267.67C274.75 267.67 274.17 266.8 274.17 264.97L274.17 242.59L277.96 242.59C279.95 242.59 282.03 243.76 283.24 245.46L283.57 245.96L284.07 245.96C283.95 244.67 283.82 243.01 283.7 241.72L283.61 240.84L257.83 240.84L257.74 241.72C257.62 243.01 257.49 244.67 257.37 245.96L257.87 245.96L258.2 245.46C259.41 243.76 261.49 242.59 263.48 242.59L267.27 242.59L267.27 264.97C267.27 266.8 266.69 267.67 265.6 267.67L265.6 268.29L275.84 268.29Z" stroke="#000000" stroke-opacity="0" stroke-width="1.000000"/>
		<path id="element-id-35997" d="M303.45 256.44L303.45 251.12L302.95 251.12L302.79 251.37C302.33 252.2 300.58 252.78 298.46 252.78L293.89 252.78L293.89 242.59L300.12 242.59C302.62 242.59 304.87 243.63 305.82 245.17L306.11 245.63L306.57 245.63L306.57 240.84L285.28 240.84L285.28 241.47C286.36 241.47 286.94 242.34 286.94 244.17L286.94 264.97C286.94 266.8 286.36 267.67 285.28 267.67L285.28 268.29L306.4 268.29L306.53 267.42C306.74 266.26 307.03 264.68 307.24 263.51L306.78 263.51L306.4 263.97C305.16 265.51 302.74 266.55 300.25 266.55L293.89 266.55L293.89 254.53L298.46 254.53C300.58 254.53 302.29 255.19 302.79 256.15L302.95 256.44L303.45 256.44Z" fill="url(#paint_linear_4_18_0)" fill-opacity="1.000000" fill-rule="nonzero"/>
		<path id="element-id-35997" d="M303.45 251.12L302.95 251.12L302.79 251.37C302.33 252.2 300.58 252.78 298.46 252.78L293.89 252.78L293.89 242.59L300.12 242.59C302.62 242.59 304.87 243.63 305.82 245.17L306.11 245.63L306.57 245.63L306.57 240.84L285.28 240.84L285.28 241.47C286.36 241.47 286.94 242.34 286.94 244.17L286.94 264.97C286.94 266.8 286.36 267.67 285.28 267.67L285.28 268.29L306.4 268.29L306.53 267.42C306.74 266.26 307.03 264.68 307.24 263.51L306.78 263.51L306.4 263.97C305.16 265.51 302.74 266.55 300.25 266.55L293.89 266.55L293.89 254.53L298.46 254.53C300.58 254.53 302.29 255.19 302.79 256.15L302.95 256.44L303.45 256.44L303.45 251.12Z" stroke="#000000" stroke-opacity="0" stroke-width="1.000000"/>
		<path id="element-id-4371" d="M310.48 241.47C311.56 241.47 312.14 242.34 312.14 244.17L312.14 264.97C312.14 266.8 311.56 267.67 310.48 267.67L310.48 268.29L320.71 268.29L320.71 267.67C319.63 267.67 319.05 266.8 319.05 264.97L319.05 255.4L321.42 255.4C322.62 257.15 324.66 260.14 327.24 263.89C330.15 268.13 330.57 268.29 338.22 268.29L340.51 268.29L340.51 266.92C338.06 266.92 337.89 266.88 336.72 265.22C333.11 259.93 330.36 256.15 329.2 254.53C333.19 253.32 335.6 250.95 335.6 247.87C335.6 243.63 330.86 240.8 323.71 240.8L310.52 240.8L310.48 241.47ZM322.79 253.65L319.09 253.61L319.09 242.55L323.71 242.55C326.49 242.55 328.32 244.67 328.32 247.87C328.32 251.32 326.12 253.65 322.79 253.65Z" fill="url(#paint_linear_4_19_0)" fill-opacity="1.000000" fill-rule="nonzero"/>
		<path id="element-id-4371" d="M312.14 244.17L312.14 264.97C312.14 266.8 311.56 267.67 310.48 267.67L310.48 268.29L320.71 268.29L320.71 267.67C319.63 267.67 319.05 266.8 319.05 264.97L319.05 255.4L321.42 255.4C322.62 257.15 324.66 260.14 327.24 263.89C330.15 268.13 330.57 268.29 338.22 268.29L340.51 268.29L340.51 266.92C338.06 266.92 337.89 266.88 336.72 265.22C333.11 259.93 330.36 256.15 329.2 254.53C333.19 253.32 335.6 250.95 335.6 247.87C335.6 243.63 330.86 240.8 323.71 240.8L310.52 240.8L310.48 241.47C311.56 241.47 312.14 242.34 312.14 244.17ZM319.09 253.61L319.09 242.55L323.71 242.55C326.49 242.55 328.32 244.67 328.32 247.87C328.32 251.32 326.12 253.65 322.79 253.65L319.09 253.61Z" stroke="#000000" stroke-opacity="0" stroke-width="1.000000"/>
		<path id="element-id-40020" d="M379.4 247.29L379.4 242.96L378.98 243.71L379.4 242.96C376.98 241.55 372.91 240.64 369.21 240.64C359.02 240.64 352.2 246.21 352.2 254.57C352.2 262.93 359.02 268.5 369.21 268.5C373.03 268.5 377.23 267.59 379.65 266.17L379.65 258.73C379.65 256.9 380.23 256.02 381.31 256.02L381.31 255.4L371.74 255.4L371.74 256.02C372.82 256.02 373.41 256.9 373.41 258.73L373.41 266.38C372.03 266.63 370.58 266.75 369.16 266.75C363.55 266.75 359.81 261.89 359.81 254.57C359.81 247.25 363.55 242.38 369.16 242.38C370.04 242.38 370.95 242.42 371.87 242.55C374.53 242.88 377.11 244.38 378.27 246.38C378.44 246.67 378.65 247 378.81 247.29L379.4 247.29Z" fill="url(#paint_linear_4_20_0)" fill-opacity="1.000000" fill-rule="nonzero"/>
		<path id="element-id-40020" d="M379.4 242.96C376.98 241.55 372.91 240.64 369.21 240.64C359.02 240.64 352.2 246.21 352.2 254.57C352.2 262.93 359.02 268.5 369.21 268.5C373.03 268.5 377.23 267.59 379.65 266.17L379.65 258.73C379.65 256.9 380.23 256.02 381.31 256.02L381.31 255.4L371.74 255.4L371.74 256.02C372.82 256.02 373.41 256.9 373.41 258.73L373.41 266.38C372.03 266.63 370.58 266.75 369.16 266.75C363.55 266.75 359.81 261.89 359.81 254.57C359.81 247.25 363.55 242.38 369.16 242.38C370.04 242.38 370.95 242.42 371.87 242.55C374.53 242.88 377.11 244.38 378.27 246.38C378.44 246.67 378.65 247 378.81 247.29L379.4 247.29L379.4 242.96ZM379.4 242.96L378.98 243.71" stroke="#000000" stroke-opacity="0" stroke-width="1.000000"/>
		<path id="element-id-10381" d="M411.84 240.84L405.85 240.84L405.85 241.47L406.14 241.47C407.1 241.47 407.76 242.55 407.84 244.21L407.8 259.48C407.8 263.43 405.6 266.05 399.94 266.05C395.95 266.05 394.37 263.72 394.37 260.23L394.33 243.84C394.41 242.17 394.95 241.43 395.99 241.43L395.99 240.8L385.76 240.8L385.76 241.43C386.84 241.43 387.42 242.3 387.42 244.13L387.42 258.89C387.42 264.63 390.63 268.46 398.9 268.46C406.85 268.46 409.92 265.13 409.92 260.14L409.92 244.55C409.92 242.67 410.59 241.43 411.55 241.43L411.84 241.43L411.84 240.84Z" fill="url(#paint_linear_4_21_0)" fill-opacity="1.000000" fill-rule="nonzero"/>
		<path id="element-id-10381" d="M405.85 240.84L405.85 241.47L406.14 241.47C407.1 241.47 407.76 242.55 407.84 244.21L407.8 259.48C407.8 263.43 405.6 266.05 399.94 266.05C395.95 266.05 394.37 263.72 394.37 260.23L394.33 243.84C394.41 242.17 394.95 241.43 395.99 241.43L395.99 240.8L385.76 240.8L385.76 241.43C386.84 241.43 387.42 242.3 387.42 244.13L387.42 258.89C387.42 264.63 390.63 268.46 398.9 268.46C406.85 268.46 409.92 265.13 409.92 260.14L409.92 244.55C409.92 242.67 410.59 241.43 411.55 241.43L411.84 241.43L411.84 240.84L405.85 240.84Z" stroke="#000000" stroke-opacity="0" stroke-width="1.000000"/>
		<path id="element-id-86960" d="M426.85 267.67C425.77 267.67 425.19 266.8 425.19 264.97L425.19 244.17C425.19 242.34 425.77 241.47 426.85 241.47L426.85 240.84L416.58 240.84L416.58 241.47C417.66 241.47 418.24 242.34 418.24 244.17L418.24 264.97C418.24 266.8 417.66 267.67 416.58 267.67L416.58 268.29L426.85 268.29L426.85 267.67Z" fill="url(#paint_linear_4_22_0)" fill-opacity="1.000000" fill-rule="nonzero"/>
		<path id="element-id-86960" d="M425.19 264.97L425.19 244.17C425.19 242.34 425.77 241.47 426.85 241.47L426.85 240.84L416.58 240.84L416.58 241.47C417.66 241.47 418.24 242.34 418.24 244.17L418.24 264.97C418.24 266.8 417.66 267.67 416.58 267.67L416.58 268.29L426.85 268.29L426.85 267.67C425.77 267.67 425.19 266.8 425.19 264.97Z" stroke="#000000" stroke-opacity="0" stroke-width="1.000000"/>
		<path id="element-id-23429" d="M429.51 241.47C430.59 241.47 431.18 242.34 431.18 244.17L431.18 264.97C431.18 266.8 430.59 267.67 429.51 267.67L429.51 268.29L443.78 268.29C453.1 268.29 459.29 262.8 459.29 254.57C459.29 246.33 452.51 240.84 442.36 240.84L429.51 240.84L429.51 241.47ZM438.08 266.55L438.08 242.59L442.36 242.59C448.35 242.59 452.35 247.37 452.35 254.57C452.35 261.76 448.94 266.55 443.78 266.55L438.08 266.55Z" fill="url(#paint_linear_4_23_0)" fill-opacity="1.000000" fill-rule="nonzero"/>
		<path id="element-id-23429" d="M431.18 244.17L431.18 264.97C431.18 266.8 430.59 267.67 429.51 267.67L429.51 268.29L443.78 268.29C453.1 268.29 459.29 262.8 459.29 254.57C459.29 246.33 452.51 240.84 442.36 240.84L429.51 240.84L429.51 241.47C430.59 241.47 431.18 242.34 431.18 244.17ZM438.08 242.59L442.36 242.59C448.35 242.59 452.35 247.37 452.35 254.57C452.35 261.76 448.94 266.55 443.78 266.55L438.08 266.55L438.08 242.59Z" stroke="#000000" stroke-opacity="0" stroke-width="1.000000"/>
		<path id="element-id-64000" d="M481.21 256.44L481.21 251.12L480.71 251.12L480.55 251.37C480.09 252.2 478.34 252.78 476.22 252.78L471.64 252.78L471.64 242.59L477.88 242.59C480.38 242.59 482.62 243.63 483.58 245.17L483.87 245.63L484.33 245.63L484.33 240.84L463.04 240.84L463.04 241.47C464.12 241.47 464.7 242.34 464.7 244.17L464.7 264.97C464.7 266.8 464.12 267.67 463.04 267.67L463.04 268.29L484.16 268.29L484.29 267.42C484.5 266.26 484.79 264.68 485 263.51L484.54 263.51L484.16 263.97C482.92 265.51 480.5 266.55 478.01 266.55L471.64 266.55L471.64 254.53L476.22 254.53C478.34 254.53 480.05 255.19 480.55 256.15L480.71 256.44L481.21 256.44Z" fill="url(#paint_linear_4_24_0)" fill-opacity="1.000000" fill-rule="nonzero"/>
		<path id="element-id-64000" d="M481.21 251.12L480.71 251.12L480.55 251.37C480.09 252.2 478.34 252.78 476.22 252.78L471.64 252.78L471.64 242.59L477.88 242.59C480.38 242.59 482.62 243.63 483.58 245.17L483.87 245.63L484.33 245.63L484.33 240.84L463.04 240.84L463.04 241.47C464.12 241.47 464.7 242.34 464.7 244.17L464.7 264.97C464.7 266.8 464.12 267.67 463.04 267.67L463.04 268.29L484.16 268.29L484.29 267.42C484.5 266.26 484.79 264.68 485 263.51L484.54 263.51L484.16 263.97C482.92 265.51 480.5 266.55 478.01 266.55L471.64 266.55L471.64 254.53L476.22 254.53C478.34 254.53 480.05 255.19 480.55 256.15L480.71 256.44L481.21 256.44L481.21 251.12Z" stroke="#000000" stroke-opacity="0" stroke-width="1.000000"/>
		<path id="element-id-63272" d="M65 235C65 216.15 80.28 200.87 99.13 200.87C107.07 200.87 114.39 203.58 120.19 208.14C115.77 205.68 110.68 204.28 105.27 204.28C88.3 204.28 74.55 218.03 74.55 235C74.55 251.96 88.3 265.71 105.27 265.71C110.68 265.71 115.77 264.31 120.19 261.85C114.39 266.41 107.07 269.13 99.13 269.13C80.28 269.13 65 253.85 65 235ZM133.84 235C133.84 250.08 121.62 262.3 106.54 262.3C100.18 262.3 94.33 260.13 89.69 256.48C93.22 258.45 97.29 259.57 101.62 259.57C115.2 259.57 126.2 248.57 126.2 235C126.2 221.42 115.2 210.42 101.62 210.42C97.29 210.42 93.22 211.54 89.69 213.51C94.33 209.87 100.18 207.69 106.54 207.69C121.62 207.69 133.84 219.92 133.84 235ZM114.93 234.98C114.93 237.44 113.08 239.45 110.73 239.45C108.28 239.45 106.29 237.44 106.29 234.98C106.29 232.54 108.28 230.54 110.73 230.54C112.19 230.54 113.47 231.23 114.29 232.3C114.32 232.35 114.34 232.4 114.34 232.45C114.34 232.52 114.29 232.61 114.21 232.66L112.56 233.79C112.51 233.83 112.46 233.84 112.41 233.84C112.34 233.84 112.26 233.8 112.21 233.74C111.85 233.29 111.31 233.02 110.7 233.02C109.6 233.02 108.72 233.9 108.72 235C108.72 236.09 109.6 236.97 110.7 236.97C111.41 236.97 112.01 236.61 112.36 236.05L110.95 236.05C110.81 236.05 110.7 235.94 110.7 235.8L110.7 234.46C110.7 234.32 110.81 234.21 110.95 234.21L114.66 234.21C114.78 234.21 114.88 234.3 114.9 234.42C114.92 234.61 114.93 234.8 114.93 234.98ZM86.64 239.34L84.15 239.34C84.02 239.34 83.9 239.23 83.9 239.09L83.9 230.9C83.9 230.76 84.02 230.65 84.15 230.65L86.39 230.65C88.8 230.65 89.74 231.68 89.74 232.95C89.74 233.65 89.46 234.29 88.76 234.71C89.71 235.16 90.1 235.89 90.1 236.81C90.1 237.89 89.36 239.34 86.64 239.34ZM93.84 239.34L91.36 239.34C91.22 239.34 91.11 239.23 91.11 239.09L91.11 230.9C91.11 230.76 91.22 230.65 91.36 230.65L93.59 230.65C96 230.65 96.95 231.68 96.95 232.95C96.95 233.65 96.66 234.29 95.97 234.71C96.91 235.16 97.31 235.89 97.31 236.81C97.31 237.89 96.56 239.34 93.84 239.34ZM103.06 230.65L105.05 230.65C105.18 230.65 105.29 230.76 105.29 230.9L105.29 239.09C105.29 239.23 105.18 239.34 105.05 239.34L103.06 239.34C102.92 239.34 102.81 239.23 102.81 239.09L102.81 236.81L100.8 236.81L100.8 239.09C100.8 239.23 100.69 239.34 100.55 239.34L98.56 239.34C98.42 239.34 98.31 239.23 98.31 239.09L98.31 230.9C98.31 230.76 98.42 230.65 98.56 230.65L100.55 230.65C100.69 230.65 100.8 230.76 100.8 230.9L100.8 234.66L102.81 234.66L102.81 230.9C102.81 230.76 102.92 230.65 103.06 230.65ZM86.39 232.44L86.26 232.44L86.26 233.98C86.69 233.98 87.36 233.98 87.36 233.21C87.36 232.44 87.05 232.44 86.39 232.44ZM93.59 232.44L93.47 232.44L93.47 233.98C93.89 233.98 94.56 233.98 94.56 233.21C94.56 232.44 94.25 232.44 93.59 232.44ZM87.63 236.72C87.63 235.95 87.05 235.95 86.26 235.95L86.26 237.49L86.64 237.49C87.38 237.49 87.63 237.27 87.63 236.72ZM94.84 236.72C94.84 235.95 94.25 235.95 93.47 235.95L93.47 237.49L93.84 237.49C94.59 237.49 94.84 237.27 94.84 236.72Z" fill="url(#paint_linear_4_26_0)" fill-opacity="1.000000" fill-rule="evenodd"/>
		<path id="element-id-63272" d="M99.13 200.87C107.07 200.87 114.39 203.58 120.19 208.14C115.77 205.68 110.68 204.28 105.27 204.28C88.3 204.28 74.55 218.03 74.55 235C74.55 251.96 88.3 265.71 105.27 265.71C110.68 265.71 115.77 264.31 120.19 261.85C114.39 266.41 107.07 269.13 99.13 269.13C80.28 269.13 65 253.85 65 235C65 216.15 80.28 200.87 99.13 200.87ZM106.54 262.3C100.18 262.3 94.33 260.13 89.69 256.48C93.22 258.45 97.29 259.57 101.62 259.57C115.2 259.57 126.2 248.57 126.2 235C126.2 221.42 115.2 210.42 101.62 210.42C97.29 210.42 93.22 211.54 89.69 213.51C94.33 209.87 100.18 207.69 106.54 207.69C121.62 207.69 133.84 219.92 133.84 235C133.84 250.08 121.62 262.3 106.54 262.3ZM110.73 239.45C108.28 239.45 106.29 237.44 106.29 234.98C106.29 232.54 108.28 230.54 110.73 230.54C112.19 230.54 113.47 231.23 114.29 232.3C114.32 232.35 114.34 232.4 114.34 232.45C114.34 232.52 114.29 232.61 114.21 232.66L112.56 233.79C112.51 233.83 112.46 233.84 112.41 233.84C112.34 233.84 112.26 233.8 112.21 233.74C111.85 233.29 111.31 233.02 110.7 233.02C109.6 233.02 108.72 233.9 108.72 235C108.72 236.09 109.6 236.97 110.7 236.97C111.41 236.97 112.01 236.61 112.36 236.05L110.95 236.05C110.81 236.05 110.7 235.94 110.7 235.8L110.7 234.46C110.7 234.32 110.81 234.21 110.95 234.21L114.66 234.21C114.78 234.21 114.88 234.3 114.9 234.42C114.92 234.61 114.93 234.8 114.93 234.98C114.93 237.44 113.08 239.45 110.73 239.45ZM84.15 239.34C84.02 239.34 83.9 239.23 83.9 239.09L83.9 230.9C83.9 230.76 84.02 230.65 84.15 230.65L86.39 230.65C88.8 230.65 89.74 231.68 89.74 232.95C89.74 233.65 89.46 234.29 88.76 234.71C89.71 235.16 90.1 235.89 90.1 236.81C90.1 237.89 89.36 239.34 86.64 239.34L84.15 239.34ZM91.36 239.34C91.22 239.34 91.11 239.23 91.11 239.09L91.11 230.9C91.11 230.76 91.22 230.65 91.36 230.65L93.59 230.65C96 230.65 96.95 231.68 96.95 232.95C96.95 233.65 96.66 234.29 95.97 234.71C96.91 235.16 97.31 235.89 97.31 236.81C97.31 237.89 96.56 239.34 93.84 239.34L91.36 239.34ZM105.05 230.65C105.18 230.65 105.29 230.76 105.29 230.9L105.29 239.09C105.29 239.23 105.18 239.34 105.05 239.34L103.06 239.34C102.92 239.34 102.81 239.23 102.81 239.09L102.81 236.81L100.8 236.81L100.8 239.09C100.8 239.23 100.69 239.34 100.55 239.34L98.56 239.34C98.42 239.34 98.31 239.23 98.31 239.09L98.31 230.9C98.31 230.76 98.42 230.65 98.56 230.65L100.55 230.65C100.69 230.65 100.8 230.76 100.8 230.9L100.8 234.66L102.81 234.66L102.81 230.9C102.81 230.76 102.92 230.65 103.06 230.65L105.05 230.65ZM86.26 232.44L86.26 233.98C86.69 233.98 87.36 233.98 87.36 233.21C87.36 232.44 87.05 232.44 86.39 232.44L86.26 232.44ZM93.47 232.44L93.47 233.98C93.89 233.98 94.56 233.98 94.56 233.21C94.56 232.44 94.25 232.44 93.59 232.44L93.47 232.44ZM86.26 235.95L86.26 237.49L86.64 237.49C87.38 237.49 87.63 237.27 87.63 236.72C87.63 235.95 87.05 235.95 86.26 235.95ZM93.47 235.95L93.47 237.49L93.84 237.49C94.59 237.49 94.84 237.27 94.84 236.72C94.84 235.95 94.25 235.95 93.47 235.95Z" stroke="#000000" stroke-opacity="0" stroke-width="1.000000"/>
		<path id="element-id-46074" d="M149.12 269.13L149.12 200.87L151.96 200.87L151.96 269.13L149.12 269.13Z" fill="url(#paint_linear_4_27_0)" fill-opacity="1.000000" fill-rule="nonzero"/>
		<path id="element-id-46074" d="M149.12 200.87L151.96 200.87L151.96 269.13L149.12 269.13L149.12 200.87Z" stroke="#000000" stroke-opacity="0" stroke-width="1.000000"/>
		<rect id="rect" x="172.000000" y="201.000000" width="313.000000" height="68.000000" fill="#FFFFFF" fill-opacity="0"/>
		<rect id="rect" x="65.000000" y="201.000000" width="69.000000" height="68.000000" fill="#FFFFFF" fill-opacity="0"/>
		<rect id="rect" x="65.000000" y="201.000000" width="69.000000" height="68.000000" fill="#FFFFFF" fill-opacity="0"/>
		<rect id="rect" x="240.000000" y="201.000000" width="33.000000" height="32.000000" fill="#FFFFFF" fill-opacity="0"/>
		<rect id="rect" x="324.000000" y="201.000000" width="32.000000" height="32.000000" fill="#FFFFFF" fill-opacity="0"/>
		<rect id="rect" x="453.000000" y="201.000000" width="32.000000" height="31.000000" fill="#FFFFFF" fill-opacity="0"/>
		<rect id="rect" x="172.000000" y="201.000000" width="31.000000" height="31.000000" fill="#FFFFFF" fill-opacity="0"/>
		<rect id="rect" x="290.000000" y="201.000000" width="31.000000" height="31.000000" fill="#FFFFFF" fill-opacity="0"/>
		<rect id="rect" x="424.000000" y="201.000000" width="31.000000" height="31.000000" fill="#FFFFFF" fill-opacity="0"/>
		<rect id="rect" x="205.000000" y="201.000000" width="30.000000" height="32.000000" fill="#FFFFFF" fill-opacity="0"/>
		<rect id="rect" x="359.000000" y="201.000000" width="30.000000" height="32.000000" fill="#FFFFFF" fill-opacity="0"/>
		<rect id="rect" x="394.000000" y="201.000000" width="28.000000" height="32.000000" fill="#FFFFFF" fill-opacity="0"/>
		<rect id="rect" x="352.000000" y="241.000000" width="29.000000" height="28.000000" fill="#FFFFFF" fill-opacity="0"/>
		<rect id="rect" x="310.000000" y="241.000000" width="30.000000" height="27.000000" fill="#FFFFFF" fill-opacity="0"/>
		<rect id="rect" x="430.000000" y="241.000000" width="30.000000" height="27.000000" fill="#FFFFFF" fill-opacity="0"/>
		<rect id="rect" x="172.000000" y="241.000000" width="27.000000" height="27.000000" fill="#FFFFFF" fill-opacity="0"/>
		<rect id="rect" x="257.000000" y="241.000000" width="27.000000" height="27.000000" fill="#FFFFFF" fill-opacity="0"/>
		<rect id="rect" x="201.000000" y="241.000000" width="26.000000" height="28.000000" fill="#FFFFFF" fill-opacity="0"/>
		<rect id="rect" x="386.000000" y="241.000000" width="26.000000" height="28.000000" fill="#FFFFFF" fill-opacity="0"/>
		<rect id="rect" x="232.000000" y="241.000000" width="25.000000" height="28.000000" fill="#FFFFFF" fill-opacity="0"/>
		<rect id="rect" x="285.000000" y="241.000000" width="22.000000" height="27.000000" fill="#FFFFFF" fill-opacity="0"/>
		<rect id="rect" x="463.000000" y="241.000000" width="22.000000" height="27.000000" fill="#FFFFFF" fill-opacity="0"/>
		<rect id="rect" x="417.000000" y="241.000000" width="10.000000" height="27.000000" fill="#FFFFFF" fill-opacity="0"/>
		<rect id="rect" x="149.000000" y="201.000000" width="3.000000" height="68.000000" fill="#FFFFFF" fill-opacity="0"/>
	</g>
</svg>
