<svg width="360.000000" height="340.000000" viewBox="0 0 360 340" fill="none" xmlns="http://www.w3.org/2000/svg" xmlns:xlink="http://www.w3.org/1999/xlink">
	<defs>
		<filter id="filter_4_190_dd" x="0.000000" y="0.000000" width="359.830536" height="340.000000" filterUnits="userSpaceOnUse" color-interpolation-filters="sRGB">
			<feFlood flood-opacity="0" result="BackgroundImageFix"/>
			<feColorMatrix in="SourceAlpha" type="matrix" values="0 0 0 0 0 0 0 0 0 0 0 0 0 0 0 0 0 0 127 0" result="hardAlpha"/>
			<feOffset dx="0" dy="4"/>
			<feGaussianBlur stdDeviation="1.33333"/>
			<feComposite in2="hardAlpha" operator="out" k2="-1" k3="1"/>
			<feColorMatrix type="matrix" values="0 0 0 0 0 0 0 0 0 0 0 0 0 0 0 0 0 0 0.25 0"/>
			<feBlend mode="normal" in2="BackgroundImageFix" result="effect_dropShadow_1"/>
			<feBlend mode="normal" in="SourceGraphic" in2="effect_dropShadow_1" result="shape"/>
		</filter>
		<clipPath id="clip4_190">
			<rect id="svg" width="351.830536" height="332.000000" transform="translate(4.000000 0.000000)" fill="white" fill-opacity="0"/>
		</clipPath>
		<linearGradient x1="80.000000" y1="166.108765" x2="280.205261" y2="166.108765" id="paint_linear_4_191_0" gradientUnits="userSpaceOnUse">
			<stop stop-color="#7B4397"/>
			<stop offset="1.000000" stop-color="#DC2430"/>
		</linearGradient>
		<linearGradient x1="80.000000" y1="166.108856" x2="280.205322" y2="166.108856" id="paint_linear_4_192_0" gradientUnits="userSpaceOnUse">
			<stop stop-color="#7B4397"/>
			<stop offset="1.000000" stop-color="#DC2430"/>
		</linearGradient>
		<linearGradient x1="11.534409" y1="166.108841" x2="280.205322" y2="166.108841" id="paint_linear_4_193_0" gradientUnits="userSpaceOnUse">
			<stop stop-color="#7B4397"/>
			<stop offset="1.000000" stop-color="#DC2430"/>
		</linearGradient>
		<linearGradient x1="11.534477" y1="166.109039" x2="280.205109" y2="166.109039" id="paint_linear_4_194_0" gradientUnits="userSpaceOnUse">
			<stop stop-color="#7B4397"/>
			<stop offset="1.000000" stop-color="#DC2430"/>
		</linearGradient>
		<linearGradient x1="11.534393" y1="166.108856" x2="280.204926" y2="166.108856" id="paint_linear_4_195_0" gradientUnits="userSpaceOnUse">
			<stop stop-color="#7B4397"/>
			<stop offset="1.000000" stop-color="#DC2430"/>
		</linearGradient>
		<linearGradient x1="11.534348" y1="166.108963" x2="280.204956" y2="166.108963" id="paint_linear_4_196_0" gradientUnits="userSpaceOnUse">
			<stop stop-color="#7B4397"/>
			<stop offset="1.000000" stop-color="#DC2430"/>
		</linearGradient>
		<linearGradient x1="11.534348" y1="166.109009" x2="280.204895" y2="166.109009" id="paint_linear_4_197_0" gradientUnits="userSpaceOnUse">
			<stop stop-color="#7B4397"/>
			<stop offset="1.000000" stop-color="#DC2430"/>
		</linearGradient>
		<linearGradient x1="11.534668" y1="166.108948" x2="280.205170" y2="166.108948" id="paint_linear_4_198_0" gradientUnits="userSpaceOnUse">
			<stop stop-color="#7B4397"/>
			<stop offset="1.000000" stop-color="#DC2430"/>
		</linearGradient>
		<linearGradient x1="11.534515" y1="166.108871" x2="280.205017" y2="166.108871" id="paint_linear_4_199_0" gradientUnits="userSpaceOnUse">
			<stop stop-color="#7B4397"/>
			<stop offset="1.000000" stop-color="#DC2430"/>
		</linearGradient>
		<linearGradient x1="11.534744" y1="166.108826" x2="280.205139" y2="166.108826" id="paint_linear_4_200_0" gradientUnits="userSpaceOnUse">
			<stop stop-color="#7B4397"/>
			<stop offset="1.000000" stop-color="#DC2430"/>
		</linearGradient>
		<linearGradient x1="11.533310" y1="166.109024" x2="280.203796" y2="166.109024" id="paint_linear_4_201_0" gradientUnits="userSpaceOnUse">
			<stop stop-color="#7B4397"/>
			<stop offset="1.000000" stop-color="#DC2430"/>
		</linearGradient>
		<linearGradient x1="11.534851" y1="166.108826" x2="280.205322" y2="166.108826" id="paint_linear_4_202_0" gradientUnits="userSpaceOnUse">
			<stop stop-color="#7B4397"/>
			<stop offset="1.000000" stop-color="#DC2430"/>
		</linearGradient>
		<linearGradient x1="11.534592" y1="166.108978" x2="280.205017" y2="166.108978" id="paint_linear_4_203_0" gradientUnits="userSpaceOnUse">
			<stop stop-color="#7B4397"/>
			<stop offset="1.000000" stop-color="#DC2430"/>
		</linearGradient>
		<linearGradient x1="11.534439" y1="166.108734" x2="280.204834" y2="166.108734" id="paint_linear_4_204_0" gradientUnits="userSpaceOnUse">
			<stop stop-color="#7B4397"/>
			<stop offset="1.000000" stop-color="#DC2430"/>
		</linearGradient>
		<linearGradient x1="11.534332" y1="166.108826" x2="280.204834" y2="166.108826" id="paint_linear_4_205_0" gradientUnits="userSpaceOnUse">
			<stop stop-color="#7B4397"/>
			<stop offset="1.000000" stop-color="#DC2430"/>
		</linearGradient>
		<linearGradient x1="11.534569" y1="166.108902" x2="280.205048" y2="166.108902" id="paint_linear_4_206_0" gradientUnits="userSpaceOnUse">
			<stop stop-color="#7B4397"/>
			<stop offset="1.000000" stop-color="#DC2430"/>
		</linearGradient>
		<linearGradient x1="11.534225" y1="166.108963" x2="280.204834" y2="166.108963" id="paint_linear_4_207_0" gradientUnits="userSpaceOnUse">
			<stop stop-color="#7B4397"/>
			<stop offset="1.000000" stop-color="#DC2430"/>
		</linearGradient>
		<linearGradient x1="11.534363" y1="166.108948" x2="280.204926" y2="166.108948" id="paint_linear_4_208_0" gradientUnits="userSpaceOnUse">
			<stop stop-color="#7B4397"/>
			<stop offset="1.000000" stop-color="#DC2430"/>
		</linearGradient>
		<linearGradient x1="11.534241" y1="166.108856" x2="280.204651" y2="166.108856" id="paint_linear_4_209_0" gradientUnits="userSpaceOnUse">
			<stop stop-color="#7B4397"/>
			<stop offset="1.000000" stop-color="#DC2430"/>
		</linearGradient>
		<linearGradient x1="11.534302" y1="166.108704" x2="280.204803" y2="166.108704" id="paint_linear_4_210_0" gradientUnits="userSpaceOnUse">
			<stop stop-color="#7B4397"/>
			<stop offset="1.000000" stop-color="#DC2430"/>
		</linearGradient>
		<linearGradient x1="11.534500" y1="166.108917" x2="280.205139" y2="166.108917" id="paint_linear_4_211_0" gradientUnits="userSpaceOnUse">
			<stop stop-color="#7B4397"/>
			<stop offset="1.000000" stop-color="#DC2430"/>
		</linearGradient>
		<linearGradient x1="11.534576" y1="166.108902" x2="280.205109" y2="166.108902" id="paint_linear_4_212_0" gradientUnits="userSpaceOnUse">
			<stop stop-color="#7B4397"/>
			<stop offset="1.000000" stop-color="#DC2430"/>
		</linearGradient>
		<linearGradient x1="11.534439" y1="166.108932" x2="280.205017" y2="166.108932" id="paint_linear_4_213_0" gradientUnits="userSpaceOnUse">
			<stop stop-color="#7B4397"/>
			<stop offset="1.000000" stop-color="#DC2430"/>
		</linearGradient>
	</defs>
	<g filter="url(#filter_4_190_dd)">
		<g clip-path="url(#clip4_190)">
			<path id="element-id-40573" d="M80.03 142.67C80.82 142.67 81.24 143.37 81.24 144.85L81.24 161.67C81.24 163.15 80.82 163.86 80.03 163.86L80.03 164.36L90.44 164.36C96.14 164.36 99.92 161.87 99.92 158.11C99.92 155.15 97.27 152.99 93.06 152.35C96.23 151.58 98.15 149.9 98.15 147.65C98.15 144.35 94.77 142.16 89.68 142.16L80 142.16L80.03 142.67ZM86.27 151.95L86.27 143.58L89.68 143.58C91.72 143.58 93.06 145.19 93.06 147.65C93.06 150.24 91.42 151.95 88.98 151.95L86.27 151.95ZM86.27 153.26L88.77 153.26C92.24 153.26 94.55 155.21 94.55 158.11C94.55 161 92.7 162.95 89.89 162.95L86.27 162.95L86.27 153.26Z" fill="url(#paint_linear_4_194_0)" fill-opacity="1.000000" fill-rule="nonzero"/>
			<path id="element-id-40573" d="M81.24 144.85L81.24 161.67C81.24 163.15 80.82 163.86 80.03 163.86L80.03 164.36L90.44 164.36C96.14 164.36 99.92 161.87 99.92 158.11C99.92 155.15 97.27 152.99 93.06 152.35C96.23 151.58 98.15 149.9 98.15 147.65C98.15 144.35 94.77 142.16 89.68 142.16L80 142.16L80.03 142.67C80.82 142.67 81.24 143.37 81.24 144.85ZM86.27 143.58L89.68 143.58C91.72 143.58 93.06 145.19 93.06 147.65C93.06 150.24 91.42 151.95 88.98 151.95L86.27 151.95L86.27 143.58ZM88.77 153.26C92.24 153.26 94.55 155.21 94.55 158.11C94.55 161 92.7 162.95 89.89 162.95L86.27 162.95L86.27 153.26L88.77 153.26Z" stroke="#000000" stroke-opacity="0" stroke-width="1.000000"/>
			<path id="element-id-90999" d="M120.05 142.16L115.66 142.16L115.66 142.67L115.88 142.67C116.58 142.67 117.06 143.54 117.12 144.89L117.09 157.23C117.09 160.43 115.48 162.55 111.34 162.55C108.41 162.55 107.26 160.66 107.26 157.84L107.23 144.59C107.29 143.24 107.68 142.63 108.44 142.63L108.44 142.13L100.95 142.13L100.95 142.63C101.74 142.63 102.17 143.34 102.17 144.82L102.17 156.76C102.17 161.4 104.51 164.5 110.58 164.5C116.39 164.5 118.65 161.81 118.65 157.77L118.65 145.16C118.65 143.64 119.13 142.63 119.84 142.63L120.05 142.63L120.05 142.16Z" fill="url(#paint_linear_4_195_0)" fill-opacity="1.000000" fill-rule="nonzero"/>
			<path id="element-id-90999" d="M115.66 142.16L115.66 142.67L115.88 142.67C116.58 142.67 117.06 143.54 117.12 144.89L117.09 157.23C117.09 160.43 115.48 162.55 111.34 162.55C108.41 162.55 107.26 160.66 107.26 157.84L107.23 144.59C107.29 143.24 107.68 142.63 108.44 142.63L108.44 142.13L100.95 142.13L100.95 142.63C101.74 142.63 102.17 143.34 102.17 144.82L102.17 156.76C102.17 161.4 104.51 164.5 110.58 164.5C116.39 164.5 118.65 161.81 118.65 157.77L118.65 145.16C118.65 143.64 119.13 142.63 119.84 142.63L120.05 142.63L120.05 142.16L115.66 142.16Z" stroke="#000000" stroke-opacity="0" stroke-width="1.000000"/>
			<path id="element-id-27512" d="M143.17 147.38L143.17 143.88L142.86 144.48L143.17 143.88C141.4 142.74 138.42 142 135.7 142C128.24 142 123.25 146.5 123.25 153.26C123.25 160.02 128.24 164.53 135.7 164.53C138.51 164.53 141.58 163.79 143.35 162.65L143.35 156.63C143.35 155.15 143.78 154.44 144.57 154.44L144.57 153.94L137.56 153.94L137.56 154.44C138.35 154.44 138.78 155.15 138.78 156.63L138.78 162.82C137.78 163.02 136.71 163.12 135.67 163.12C131.56 163.12 128.82 159.18 128.82 153.26C128.82 147.34 131.56 143.41 135.67 143.41C136.31 143.41 136.98 143.44 137.65 143.54C139.6 143.81 141.49 145.02 142.34 146.64C142.47 146.87 142.62 147.14 142.74 147.38L143.17 147.38Z" fill="url(#paint_linear_4_196_0)" fill-opacity="1.000000" fill-rule="nonzero"/>
			<path id="element-id-27512" d="M143.17 143.88C141.4 142.74 138.42 142 135.7 142C128.24 142 123.25 146.5 123.25 153.26C123.25 160.02 128.24 164.53 135.7 164.53C138.51 164.53 141.58 163.79 143.35 162.65L143.35 156.63C143.35 155.15 143.78 154.44 144.57 154.44L144.57 153.94L137.56 153.94L137.56 154.44C138.35 154.44 138.78 155.15 138.78 156.63L138.78 162.82C137.78 163.02 136.71 163.12 135.67 163.12C131.56 163.12 128.82 159.18 128.82 153.26C128.82 147.34 131.56 143.41 135.67 143.41C136.31 143.41 136.98 143.44 137.65 143.54C139.6 143.81 141.49 145.02 142.34 146.64C142.47 146.87 142.62 147.14 142.74 147.38L143.17 147.38L143.17 143.88ZM143.17 143.88L142.86 144.48" stroke="#000000" stroke-opacity="0" stroke-width="1.000000"/>
			<path id="element-id-40412" d="M155.75 142.67C156.54 142.67 156.96 143.37 156.96 144.85L156.96 161.67C156.96 163.15 156.54 163.86 155.75 163.86L155.75 164.36L166.16 164.36C171.86 164.36 175.64 161.87 175.64 158.11C175.64 155.15 172.99 152.99 168.78 152.35C171.95 151.58 173.87 149.9 173.87 147.65C173.87 144.35 170.49 142.16 165.4 142.16L155.72 142.16L155.75 142.67ZM161.99 151.95L161.99 143.58L165.4 143.58C167.44 143.58 168.78 145.19 168.78 147.65C168.78 150.24 167.14 151.95 164.7 151.95L161.99 151.95ZM161.99 153.26L164.49 153.26C167.96 153.26 170.27 155.21 170.27 158.11C170.27 161 168.42 162.95 165.61 162.95L161.99 162.95L161.99 153.26Z" fill="url(#paint_linear_4_197_0)" fill-opacity="1.000000" fill-rule="nonzero"/>
			<path id="element-id-40412" d="M156.96 144.85L156.96 161.67C156.96 163.15 156.54 163.86 155.75 163.86L155.75 164.36L166.16 164.36C171.86 164.36 175.64 161.87 175.64 158.11C175.64 155.15 172.99 152.99 168.78 152.35C171.95 151.58 173.87 149.9 173.87 147.65C173.87 144.35 170.49 142.16 165.4 142.16L155.72 142.16L155.75 142.67C156.54 142.67 156.96 143.37 156.96 144.85ZM161.99 143.58L165.4 143.58C167.44 143.58 168.78 145.19 168.78 147.65C168.78 150.24 167.14 151.95 164.7 151.95L161.99 151.95L161.99 143.58ZM164.49 153.26C167.96 153.26 170.27 155.21 170.27 158.11C170.27 161 168.42 162.95 165.61 162.95L161.99 162.95L161.99 153.26L164.49 153.26Z" stroke="#000000" stroke-opacity="0" stroke-width="1.000000"/>
			<path id="element-id-45880" d="M182.79 153.26C182.79 147.95 184.41 143.41 187.51 143.41C190.65 143.41 192.27 147.95 192.27 153.26C192.27 158.58 190.65 163.12 187.51 163.12C184.41 163.12 182.79 158.58 182.79 153.26ZM177.19 153.26C177.19 159.35 180.69 164.53 187.51 164.53C194.34 164.53 197.84 159.35 197.84 153.26C197.84 147.17 194.34 142 187.51 142C180.69 142 177.19 147.17 177.19 153.26Z" fill="url(#paint_linear_4_198_0)" fill-opacity="1.000000" fill-rule="nonzero"/>
			<path id="element-id-45880" d="M187.51 143.41C190.65 143.41 192.27 147.95 192.27 153.26C192.27 158.58 190.65 163.12 187.51 163.12C184.41 163.12 182.79 158.58 182.79 153.26C182.79 147.95 184.41 143.41 187.51 143.41ZM187.51 164.53C194.34 164.53 197.84 159.35 197.84 153.26C197.84 147.17 194.34 142 187.51 142C180.69 142 177.19 147.17 177.19 153.26C177.19 159.35 180.69 164.53 187.51 164.53Z" stroke="#000000" stroke-opacity="0" stroke-width="1.000000"/>
			<path id="element-id-55088" d="M218.89 142.16L214.5 142.16L214.5 142.67L214.71 142.67C215.41 142.67 215.9 143.54 215.96 144.89L215.93 157.23C215.93 160.43 214.32 162.55 210.18 162.55C207.25 162.55 206.09 160.66 206.09 157.84L206.06 144.59C206.13 143.24 206.52 142.63 207.28 142.63L207.28 142.13L199.79 142.13L199.79 142.63C200.58 142.63 201.01 143.34 201.01 144.82L201.01 156.76C201.01 161.4 203.35 164.5 209.41 164.5C215.23 164.5 217.49 161.81 217.49 157.77L217.49 145.16C217.49 143.64 217.97 142.63 218.67 142.63L218.89 142.63L218.89 142.16Z" fill="url(#paint_linear_4_199_0)" fill-opacity="1.000000" fill-rule="nonzero"/>
			<path id="element-id-55088" d="M214.5 142.16L214.5 142.67L214.71 142.67C215.41 142.67 215.9 143.54 215.96 144.89L215.93 157.23C215.93 160.43 214.32 162.55 210.18 162.55C207.25 162.55 206.09 160.66 206.09 157.84L206.06 144.59C206.13 143.24 206.52 142.63 207.28 142.63L207.28 142.13L199.79 142.13L199.79 142.63C200.58 142.63 201.01 143.34 201.01 144.82L201.01 156.76C201.01 161.4 203.35 164.5 209.41 164.5C215.23 164.5 217.49 161.81 217.49 157.77L217.49 145.16C217.49 143.64 217.97 142.63 218.67 142.63L218.89 142.63L218.89 142.16L214.5 142.16Z" stroke="#000000" stroke-opacity="0" stroke-width="1.000000"/>
			<path id="element-id-16576" d="M222.21 142.67C223 142.67 223.43 143.37 223.43 144.85L223.43 161.67C223.43 163.15 223 163.86 222.21 163.86L222.21 164.36L226.17 164.36L226.17 163.86C225.38 163.86 224.95 163.15 224.95 161.67L224.95 147.07C229 153.06 233.05 159.05 237.1 165.03L239.02 165.03L239.02 144.85C239.02 143.37 239.45 142.67 240.24 142.67L240.24 142.16L236.28 142.16L236.28 142.67C237.07 142.67 237.5 143.37 237.5 144.85L237.5 156.36L227.99 142.16L222.24 142.16L222.21 142.67Z" fill="url(#paint_linear_4_200_0)" fill-opacity="1.000000" fill-rule="nonzero"/>
			<path id="element-id-16576" d="M223.43 144.85L223.43 161.67C223.43 163.15 223 163.86 222.21 163.86L222.21 164.36L226.17 164.36L226.17 163.86C225.38 163.86 224.95 163.15 224.95 161.67L224.95 147.07C229 153.06 233.05 159.05 237.1 165.03L239.02 165.03L239.02 144.85C239.02 143.37 239.45 142.67 240.24 142.67L240.24 142.16L236.28 142.16L236.28 142.67C237.07 142.67 237.5 143.37 237.5 144.85L237.5 156.36L227.99 142.16L222.24 142.16L222.21 142.67C223 142.67 223.43 143.37 223.43 144.85Z" stroke="#000000" stroke-opacity="0" stroke-width="1.000000"/>
			<path id="element-id-59179" d="M246.97 164.36L254.46 164.36L254.46 163.86C253.67 163.86 253.24 163.15 253.24 161.67L253.24 143.58L256.01 143.58C257.48 143.58 259 144.52 259.88 145.9L260.13 146.3L260.49 146.3C260.4 145.26 260.31 143.91 260.22 142.87L260.16 142.16L241.27 142.16L241.21 142.87C241.12 143.91 241.03 145.26 240.94 146.3L241.3 146.3L241.55 145.9C242.43 144.52 243.95 143.58 245.42 143.58L248.19 143.58L248.19 161.67C248.19 163.15 247.76 163.86 246.97 163.86L246.97 164.36Z" fill="url(#paint_linear_4_201_0)" fill-opacity="1.000000" fill-rule="nonzero"/>
			<path id="element-id-59179" d="M254.46 164.36L254.46 163.86C253.67 163.86 253.24 163.15 253.24 161.67L253.24 143.58L256.01 143.58C257.48 143.58 259 144.52 259.88 145.9L260.13 146.3L260.49 146.3C260.4 145.26 260.31 143.91 260.22 142.87L260.16 142.16L241.27 142.16L241.21 142.87C241.12 143.91 241.03 145.26 240.94 146.3L241.3 146.3L241.55 145.9C242.43 144.52 243.95 143.58 245.42 143.58L248.19 143.58L248.19 161.67C248.19 163.15 247.76 163.86 246.97 163.86L246.97 164.36L254.46 164.36Z" stroke="#000000" stroke-opacity="0" stroke-width="1.000000"/>
			<path id="element-id-13076" d="M268.14 142.16L259.98 142.16L259.98 142.67C260.59 142.67 261.19 143.31 261.93 144.48L267.5 154.2L267.53 161.97C267.47 163.28 267.07 163.89 266.31 163.89L266.31 164.4L273.8 164.4L273.8 163.89C273.01 163.89 272.59 163.18 272.59 161.71L272.59 152.66C274.29 150.07 276 147.44 277.73 144.85C278.65 143.44 279.47 142.67 280.2 142.67L280.2 142.16L276.15 142.16L276.15 142.67L276.36 142.67C277.12 142.67 276.88 143.81 275.78 145.53L271.98 151.48L268.11 144.65C267.47 143.44 267.41 142.67 267.99 142.67L268.14 142.67L268.14 142.16Z" fill="url(#paint_linear_4_202_0)" fill-opacity="1.000000" fill-rule="nonzero"/>
			<path id="element-id-13076" d="M259.98 142.16L259.98 142.67C260.59 142.67 261.19 143.31 261.93 144.48L267.5 154.2L267.53 161.97C267.47 163.28 267.07 163.89 266.31 163.89L266.31 164.4L273.8 164.4L273.8 163.89C273.01 163.89 272.59 163.18 272.59 161.71L272.59 152.66C274.29 150.07 276 147.44 277.73 144.85C278.65 143.44 279.47 142.67 280.2 142.67L280.2 142.16L276.15 142.16L276.15 142.67L276.36 142.67C277.12 142.67 276.88 143.81 275.78 145.53L271.98 151.48L268.11 144.65C267.47 143.44 267.41 142.67 267.99 142.67L268.14 142.67L268.14 142.16L259.98 142.16Z" stroke="#000000" stroke-opacity="0" stroke-width="1.000000"/>
			<path id="element-id-36297" d="M97.21 189.19C96.52 189.19 96.14 188.57 96.14 187.28L96.14 172.59C96.14 171.29 96.52 170.68 97.21 170.68L97.21 170.24L90.64 170.24L90.64 170.68C91.33 170.68 91.7 171.29 91.7 172.59L91.7 178.81L85.5 178.81L85.5 172.59C85.5 171.29 85.87 170.68 86.57 170.68L86.57 170.24L80 170.24L80 170.68C80.69 170.68 81.06 171.29 81.06 172.59L81.06 187.28C81.06 188.57 80.69 189.19 80 189.19L80 189.63L86.57 189.63L86.57 189.19C85.87 189.19 85.5 188.57 85.5 187.28L85.5 180.05L91.7 180.05L91.7 187.28C91.7 188.57 91.33 189.19 90.64 189.19L90.64 189.63L97.21 189.63L97.21 189.19Z" fill="url(#paint_linear_4_203_0)" fill-opacity="1.000000" fill-rule="nonzero"/>
			<path id="element-id-36297" d="M96.14 187.28L96.14 172.59C96.14 171.29 96.52 170.68 97.21 170.68L97.21 170.24L90.64 170.24L90.64 170.68C91.33 170.68 91.7 171.29 91.7 172.59L91.7 178.81L85.5 178.81L85.5 172.59C85.5 171.29 85.87 170.68 86.57 170.68L86.57 170.24L80 170.24L80 170.68C80.69 170.68 81.06 171.29 81.06 172.59L81.06 187.28C81.06 188.57 80.69 189.19 80 189.19L80 189.63L86.57 189.63L86.57 189.19C85.87 189.19 85.5 188.57 85.5 187.28L85.5 180.05L91.7 180.05L91.7 187.28C91.7 188.57 91.33 189.19 90.64 189.19L90.64 189.63L97.21 189.63L97.21 189.19C96.52 189.19 96.14 188.57 96.14 187.28Z" stroke="#000000" stroke-opacity="0" stroke-width="1.000000"/>
			<path id="element-id-98610" d="M115.33 170.24L111.5 170.24L111.5 170.68L111.68 170.68C112.29 170.68 112.72 171.44 112.77 172.62L112.75 183.4C112.75 186.19 111.34 188.04 107.72 188.04C105.16 188.04 104.15 186.39 104.15 183.93L104.13 172.35C104.18 171.18 104.53 170.65 105.19 170.65L105.19 170.21L98.65 170.21L98.65 170.65C99.34 170.65 99.71 171.26 99.71 172.56L99.71 182.99C99.71 187.04 101.76 189.74 107.05 189.74C112.13 189.74 114.1 187.39 114.1 183.87L114.1 172.85C114.1 171.53 114.53 170.65 115.14 170.65L115.33 170.65L115.33 170.24Z" fill="url(#paint_linear_4_204_0)" fill-opacity="1.000000" fill-rule="nonzero"/>
			<path id="element-id-98610" d="M111.5 170.24L111.5 170.68L111.68 170.68C112.29 170.68 112.72 171.44 112.77 172.62L112.75 183.4C112.75 186.19 111.34 188.04 107.72 188.04C105.16 188.04 104.15 186.39 104.15 183.93L104.13 172.35C104.18 171.18 104.53 170.65 105.19 170.65L105.19 170.21L98.65 170.21L98.65 170.65C99.34 170.65 99.71 171.26 99.71 172.56L99.71 182.99C99.71 187.04 101.76 189.74 107.05 189.74C112.13 189.74 114.1 187.39 114.1 183.87L114.1 172.85C114.1 171.53 114.53 170.65 115.14 170.65L115.33 170.65L115.33 170.24L111.5 170.24Z" stroke="#000000" stroke-opacity="0" stroke-width="1.000000"/>
			<path id="element-id-22642" d="M118.23 170.68C118.92 170.68 119.29 171.29 119.29 172.59L119.29 187.28C119.29 188.57 118.92 189.19 118.23 189.19L118.23 189.63L121.69 189.63L121.69 189.19C120.99 189.19 120.62 188.57 120.62 187.28L120.62 174.52C124.16 179.75 127.7 184.98 131.24 190.21L132.91 190.21L132.91 172.59C132.91 171.29 133.28 170.68 133.98 170.68L133.98 170.24L130.52 170.24L130.52 170.68C131.21 170.68 131.58 171.29 131.58 172.59L131.58 182.63L123.28 170.24L118.25 170.24L118.23 170.68Z" fill="url(#paint_linear_4_205_0)" fill-opacity="1.000000" fill-rule="nonzero"/>
			<path id="element-id-22642" d="M119.29 172.59L119.29 187.28C119.29 188.57 118.92 189.19 118.23 189.19L118.23 189.63L121.69 189.63L121.69 189.19C120.99 189.19 120.62 188.57 120.62 187.28L120.62 174.52C124.16 179.75 127.7 184.98 131.24 190.21L132.91 190.21L132.91 172.59C132.91 171.29 133.28 170.68 133.98 170.68L133.98 170.24L130.52 170.24L130.52 170.68C131.21 170.68 131.58 171.29 131.58 172.59L131.58 182.63L123.28 170.24L118.25 170.24L118.23 170.68C118.92 170.68 119.29 171.29 119.29 172.59Z" stroke="#000000" stroke-opacity="0" stroke-width="1.000000"/>
			<path id="element-id-29952" d="M139.86 189.63L146.4 189.63L146.4 189.19C145.71 189.19 145.34 188.57 145.34 187.28L145.34 171.47L147.76 171.47C149.04 171.47 150.37 172.29 151.14 173.5L151.35 173.85L151.67 173.85C151.59 172.94 151.51 171.76 151.43 170.85L151.38 170.24L134.88 170.24L134.83 170.85C134.75 171.76 134.67 172.94 134.59 173.85L134.91 173.85L135.12 173.5C135.89 172.29 137.22 171.47 138.5 171.47L140.92 171.47L140.92 187.28C140.92 188.57 140.55 189.19 139.86 189.19L139.86 189.63Z" fill="url(#paint_linear_4_206_0)" fill-opacity="1.000000" fill-rule="nonzero"/>
			<path id="element-id-29952" d="M146.4 189.63L146.4 189.19C145.71 189.19 145.34 188.57 145.34 187.28L145.34 171.47L147.76 171.47C149.04 171.47 150.37 172.29 151.14 173.5L151.35 173.85L151.67 173.85C151.59 172.94 151.51 171.76 151.43 170.85L151.38 170.24L134.88 170.24L134.83 170.85C134.75 171.76 134.67 172.94 134.59 173.85L134.91 173.85L135.12 173.5C135.89 172.29 137.22 171.47 138.5 171.47L140.92 171.47L140.92 187.28C140.92 188.57 140.55 189.19 139.86 189.19L139.86 189.63L146.4 189.63Z" stroke="#000000" stroke-opacity="0" stroke-width="1.000000"/>
			<path id="element-id-24935" d="M164.07 181.25L164.07 177.49L163.75 177.49L163.64 177.67C163.35 178.26 162.23 178.67 160.88 178.67L157.95 178.67L157.95 171.47L161.94 171.47C163.53 171.47 164.97 172.2 165.58 173.29L165.77 173.61L166.06 173.61L166.06 170.24L152.44 170.24L152.44 170.68C153.13 170.68 153.5 171.29 153.5 172.59L153.5 187.28C153.5 188.57 153.13 189.19 152.44 189.19L152.44 189.63L165.96 189.63L166.04 189.01C166.17 188.19 166.36 187.07 166.49 186.25L166.2 186.25L165.96 186.57C165.16 187.66 163.62 188.39 162.02 188.39L157.95 188.39L157.95 179.9L160.88 179.9C162.23 179.9 163.32 180.37 163.64 181.05L163.75 181.25L164.07 181.25Z" fill="url(#paint_linear_4_207_0)" fill-opacity="1.000000" fill-rule="nonzero"/>
			<path id="element-id-24935" d="M164.07 177.49L163.75 177.49L163.64 177.67C163.35 178.26 162.23 178.67 160.88 178.67L157.95 178.67L157.95 171.47L161.94 171.47C163.53 171.47 164.97 172.2 165.58 173.29L165.77 173.61L166.06 173.61L166.06 170.24L152.44 170.24L152.44 170.68C153.13 170.68 153.5 171.29 153.5 172.59L153.5 187.28C153.5 188.57 153.13 189.19 152.44 189.19L152.44 189.63L165.96 189.63L166.04 189.01C166.17 188.19 166.36 187.07 166.49 186.25L166.2 186.25L165.96 186.57C165.16 187.66 163.62 188.39 162.02 188.39L157.95 188.39L157.95 179.9L160.88 179.9C162.23 179.9 163.32 180.37 163.64 181.05L163.75 181.25L164.07 181.25L164.07 177.49Z" stroke="#000000" stroke-opacity="0" stroke-width="1.000000"/>
			<path id="element-id-80739" d="M168.56 170.68C169.26 170.68 169.63 171.29 169.63 172.59L169.63 187.28C169.63 188.57 169.26 189.19 168.56 189.19L168.56 189.63L175.11 189.63L175.11 189.19C174.42 189.19 174.05 188.57 174.05 187.28L174.05 180.52L175.56 180.52C176.33 181.75 177.64 183.87 179.29 186.51C181.15 189.51 181.41 189.63 186.31 189.63L187.77 189.63L187.77 188.66C186.2 188.66 186.1 188.63 185.35 187.45C183.04 183.72 181.28 181.05 180.54 179.9C183.09 179.05 184.63 177.37 184.63 175.2C184.63 172.2 181.6 170.21 177.03 170.21L168.59 170.21L168.56 170.68ZM176.44 179.28L174.07 179.25L174.07 171.44L177.03 171.44C178.81 171.44 179.98 172.94 179.98 175.2C179.98 177.64 178.57 179.28 176.44 179.28Z" fill="url(#paint_linear_4_208_0)" fill-opacity="1.000000" fill-rule="nonzero"/>
			<path id="element-id-80739" d="M169.63 172.59L169.63 187.28C169.63 188.57 169.26 189.19 168.56 189.19L168.56 189.63L175.11 189.63L175.11 189.19C174.42 189.19 174.05 188.57 174.05 187.28L174.05 180.52L175.56 180.52C176.33 181.75 177.64 183.87 179.29 186.51C181.15 189.51 181.41 189.63 186.31 189.63L187.77 189.63L187.77 188.66C186.2 188.66 186.1 188.63 185.35 187.45C183.04 183.72 181.28 181.05 180.54 179.9C183.09 179.05 184.63 177.37 184.63 175.2C184.63 172.2 181.6 170.21 177.03 170.21L168.59 170.21L168.56 170.68C169.26 170.68 169.63 171.29 169.63 172.59ZM174.07 179.25L174.07 171.44L177.03 171.44C178.81 171.44 179.98 172.94 179.98 175.2C179.98 177.64 178.57 179.28 176.44 179.28L174.07 179.25Z" stroke="#000000" stroke-opacity="0" stroke-width="1.000000"/>
			<path id="element-id-15394" d="M212.65 174.79L212.65 171.73L212.38 172.26L212.65 171.73C211.11 170.73 208.5 170.09 206.13 170.09C199.61 170.09 195.25 174.03 195.25 179.93C195.25 185.84 199.61 189.77 206.13 189.77C208.58 189.77 211.27 189.13 212.81 188.13L212.81 182.87C212.81 181.58 213.18 180.96 213.87 180.96L213.87 180.52L207.75 180.52L207.75 180.96C208.45 180.96 208.82 181.58 208.82 182.87L208.82 188.27C207.94 188.45 207.01 188.54 206.1 188.54C202.51 188.54 200.12 185.1 200.12 179.93C200.12 174.76 202.51 171.32 206.1 171.32C206.66 171.32 207.25 171.35 207.83 171.44C209.54 171.68 211.19 172.73 211.93 174.14C212.04 174.35 212.17 174.58 212.28 174.79L212.65 174.79Z" fill="url(#paint_linear_4_209_0)" fill-opacity="1.000000" fill-rule="nonzero"/>
			<path id="element-id-15394" d="M212.65 171.73C211.11 170.73 208.5 170.09 206.13 170.09C199.61 170.09 195.25 174.03 195.25 179.93C195.25 185.84 199.61 189.77 206.13 189.77C208.58 189.77 211.27 189.13 212.81 188.13L212.81 182.87C212.81 181.58 213.18 180.96 213.87 180.96L213.87 180.52L207.75 180.52L207.75 180.96C208.45 180.96 208.82 181.58 208.82 182.87L208.82 188.27C207.94 188.45 207.01 188.54 206.1 188.54C202.51 188.54 200.12 185.1 200.12 179.93C200.12 174.76 202.51 171.32 206.1 171.32C206.66 171.32 207.25 171.35 207.83 171.44C209.54 171.68 211.19 172.73 211.93 174.14C212.04 174.35 212.17 174.58 212.28 174.79L212.65 174.79L212.65 171.73ZM212.65 171.73L212.38 172.26" stroke="#000000" stroke-opacity="0" stroke-width="1.000000"/>
			<path id="element-id-38285" d="M233.4 170.24L229.57 170.24L229.57 170.68L229.76 170.68C230.37 170.68 230.79 171.44 230.85 172.62L230.82 183.4C230.82 186.19 229.41 188.04 225.79 188.04C223.24 188.04 222.23 186.39 222.23 183.93L222.2 172.35C222.25 171.18 222.6 170.65 223.26 170.65L223.26 170.21L216.72 170.21L216.72 170.65C217.41 170.65 217.78 171.26 217.78 172.56L217.78 182.99C217.78 187.04 219.83 189.74 225.13 189.74C230.21 189.74 232.18 187.39 232.18 183.87L232.18 172.85C232.18 171.53 232.6 170.65 233.22 170.65L233.4 170.65L233.4 170.24Z" fill="url(#paint_linear_4_210_0)" fill-opacity="1.000000" fill-rule="nonzero"/>
			<path id="element-id-38285" d="M229.57 170.24L229.57 170.68L229.76 170.68C230.37 170.68 230.79 171.44 230.85 172.62L230.82 183.4C230.82 186.19 229.41 188.04 225.79 188.04C223.24 188.04 222.23 186.39 222.23 183.93L222.2 172.35C222.25 171.18 222.6 170.65 223.26 170.65L223.26 170.21L216.72 170.21L216.72 170.65C217.41 170.65 217.78 171.26 217.78 172.56L217.78 182.99C217.78 187.04 219.83 189.74 225.13 189.74C230.21 189.74 232.18 187.39 232.18 183.87L232.18 172.85C232.18 171.53 232.6 170.65 233.22 170.65L233.4 170.65L233.4 170.24L229.57 170.24Z" stroke="#000000" stroke-opacity="0" stroke-width="1.000000"/>
			<path id="element-id-68001" d="M243.01 189.19C242.31 189.19 241.94 188.57 241.94 187.28L241.94 172.59C241.94 171.29 242.31 170.68 243.01 170.68L243.01 170.24L236.43 170.24L236.43 170.68C237.13 170.68 237.5 171.29 237.5 172.59L237.5 187.28C237.5 188.57 237.13 189.19 236.43 189.19L236.43 189.63L243.01 189.63L243.01 189.19Z" fill="url(#paint_linear_4_211_0)" fill-opacity="1.000000" fill-rule="nonzero"/>
			<path id="element-id-68001" d="M241.94 187.28L241.94 172.59C241.94 171.29 242.31 170.68 243.01 170.68L243.01 170.24L236.43 170.24L236.43 170.68C237.13 170.68 237.5 171.29 237.5 172.59L237.5 187.28C237.5 188.57 237.13 189.19 236.43 189.19L236.43 189.63L243.01 189.63L243.01 189.19C242.31 189.19 241.94 188.57 241.94 187.28Z" stroke="#000000" stroke-opacity="0" stroke-width="1.000000"/>
			<path id="element-id-66536" d="M244.71 170.68C245.4 170.68 245.77 171.29 245.77 172.59L245.77 187.28C245.77 188.57 245.4 189.19 244.71 189.19L244.71 189.63L253.83 189.63C259.79 189.63 263.76 185.75 263.76 179.93C263.76 174.11 259.42 170.24 252.93 170.24L244.71 170.24L244.71 170.68ZM250.19 188.39L250.19 171.47L252.93 171.47C256.76 171.47 259.32 174.85 259.32 179.93C259.32 185.01 257.13 188.39 253.83 188.39L250.19 188.39Z" fill="url(#paint_linear_4_212_0)" fill-opacity="1.000000" fill-rule="nonzero"/>
			<path id="element-id-66536" d="M245.77 172.59L245.77 187.28C245.77 188.57 245.4 189.19 244.71 189.19L244.71 189.63L253.83 189.63C259.79 189.63 263.76 185.75 263.76 179.93C263.76 174.11 259.42 170.24 252.93 170.24L244.71 170.24L244.71 170.68C245.4 170.68 245.77 171.29 245.77 172.59ZM250.19 171.47L252.93 171.47C256.76 171.47 259.32 174.85 259.32 179.93C259.32 185.01 257.13 188.39 253.83 188.39L250.19 188.39L250.19 171.47Z" stroke="#000000" stroke-opacity="0" stroke-width="1.000000"/>
			<path id="element-id-93517" d="M277.78 181.25L277.78 177.49L277.46 177.49L277.35 177.67C277.06 178.26 275.94 178.67 274.59 178.67L271.66 178.67L271.66 171.47L275.65 171.47C277.25 171.47 278.68 172.2 279.29 173.29L279.48 173.61L279.77 173.61L279.77 170.24L266.15 170.24L266.15 170.68C266.84 170.68 267.22 171.29 267.22 172.59L267.22 187.28C267.22 188.57 266.84 189.19 266.15 189.19L266.15 189.63L279.67 189.63L279.75 189.01C279.88 188.19 280.07 187.07 280.2 186.25L279.91 186.25L279.67 186.57C278.87 187.66 277.33 188.39 275.73 188.39L271.66 188.39L271.66 179.9L274.59 179.9C275.94 179.9 277.03 180.37 277.35 181.05L277.46 181.25L277.78 181.25Z" fill="url(#paint_linear_4_213_0)" fill-opacity="1.000000" fill-rule="nonzero"/>
			<path id="element-id-93517" d="M277.78 177.49L277.46 177.49L277.35 177.67C277.06 178.26 275.94 178.67 274.59 178.67L271.66 178.67L271.66 171.47L275.65 171.47C277.25 171.47 278.68 172.2 279.29 173.29L279.48 173.61L279.77 173.61L279.77 170.24L266.15 170.24L266.15 170.68C266.84 170.68 267.22 171.29 267.22 172.59L267.22 187.28C267.22 188.57 266.84 189.19 266.15 189.19L266.15 189.63L279.67 189.63L279.75 189.01C279.88 188.19 280.07 187.07 280.2 186.25L279.91 186.25L279.67 186.57C278.87 187.66 277.33 188.39 275.73 188.39L271.66 188.39L271.66 179.9L274.59 179.9C275.94 179.9 277.03 180.37 277.35 181.05L277.46 181.25L277.78 181.25L277.78 177.49Z" stroke="#000000" stroke-opacity="0" stroke-width="1.000000"/>
			<rect id="rect" x="107.000000" y="142.000000" width="200.223434" height="48.034008" fill="#FFFFFF" fill-opacity="0"/>
			<rect id="rect" x="197.000000" y="142.000000" width="21.109827" height="22.604246" fill="#FFFFFF" fill-opacity="0"/>
			<rect id="rect" x="197.000000" y="142.000000" width="20.470133" height="22.604246" fill="#FFFFFF" fill-opacity="0"/>
			<rect id="rect" x="197.000000" y="142.000000" width="20.470133" height="21.897861" fill="#FFFFFF" fill-opacity="0"/>
			<rect id="rect" x="197.000000" y="142.000000" width="19.830442" height="21.897861" fill="#FFFFFF" fill-opacity="0"/>
			<rect id="rect" x="197.000000" y="142.000000" width="19.830442" height="21.897861" fill="#FFFFFF" fill-opacity="0"/>
			<rect id="rect" x="197.000000" y="142.000000" width="19.830442" height="21.897861" fill="#FFFFFF" fill-opacity="0"/>
			<rect id="rect" x="198.000000" y="142.000000" width="19.190744" height="22.604246" fill="#FFFFFF" fill-opacity="0"/>
			<rect id="rect" x="197.000000" y="142.000000" width="19.190744" height="22.604246" fill="#FFFFFF" fill-opacity="0"/>
			<rect id="rect" x="198.000000" y="142.000000" width="17.911375" height="22.604246" fill="#FFFFFF" fill-opacity="0"/>
			<rect id="rect" x="197.000000" y="170.000000" width="18.551058" height="19.778723" fill="#FFFFFF" fill-opacity="0"/>
			<rect id="rect" x="198.000000" y="170.000000" width="19.190744" height="19.072323" fill="#FFFFFF" fill-opacity="0"/>
			<rect id="rect" x="197.000000" y="170.000000" width="19.190744" height="19.072323" fill="#FFFFFF" fill-opacity="0"/>
			<rect id="rect" x="199.000000" y="170.000000" width="17.271667" height="19.072323" fill="#FFFFFF" fill-opacity="0"/>
			<rect id="rect" x="199.000000" y="170.000000" width="17.271667" height="19.072323" fill="#FFFFFF" fill-opacity="0"/>
			<rect id="rect" x="199.000000" y="170.000000" width="16.631977" height="19.778723" fill="#FFFFFF" fill-opacity="0"/>
			<rect id="rect" x="198.000000" y="170.000000" width="16.631977" height="19.778723" fill="#FFFFFF" fill-opacity="0"/>
			<rect id="rect" x="199.000000" y="170.000000" width="15.992290" height="19.778723" fill="#FFFFFF" fill-opacity="0"/>
			<rect id="rect" x="200.000000" y="170.000000" width="14.073217" height="19.072323" fill="#FFFFFF" fill-opacity="0"/>
			<rect id="rect" x="200.000000" y="170.000000" width="14.073217" height="19.072323" fill="#FFFFFF" fill-opacity="0"/>
			<rect id="rect" x="204.000000" y="170.000000" width="6.396916" height="19.072323" fill="#FFFFFF" fill-opacity="0"/>
			<rect id="rect" x="206.000000" y="142.000000" width="1.919075" height="48.034008" fill="#FFFFFF" fill-opacity="0"/>
		</g>
	</g>
</svg>
